# xmcd
#
# Track frame offsets: 
#        150
#        12125
#        25299
#        37758
#        49527
#        61860
#        72146
#        83000
#        95386
#        108319
#
# Disc length: 1591 seconds
#
# Revision: 0
# Processed by: cddbd v1.5.2PL0 Copyright (c) Steve Scherf et al.
# Submitted via: ExactAudioCopy v0.95b3
#
DISCID=6906350a
DTITLE=Hank Williams - American Classics: Hey Good Lookin'
DYEAR=2006
DGENRE=Country/ Western
TTITLE0=Take These Chains From My Heart
TTITLE1=Hey Good Lookin'
TTITLE2=My Sweet Love Ain't Around
TTITLE3=You Win Again
TTITLE4=Howlin' At The Moon
TTITLE5=Please Don't Let Me Love You
TTITLE6=Why Don't You Love Me?
TTITLE7=Never Again Will I Knock On Your Door
TTITLE8=Pan American
TTITLE9=I'll Never Get Out This World Alive
EXTD=
EXTT0=
EXTT1=
EXTT2=
EXTT3=
EXTT4=
EXTT5=
EXTT6=
EXTT7=
EXTT8=
EXTT9=
PLAYORDER=
